<?xml version="1.0" encoding="UTF-8"?>
<svg version="1.1" xmlns="http://www.w3.org/2000/svg" width="500" height="500">
<path d="M0 0 C1.32949475 0.6742892 2.66064936 1.34550624 4 2 C4 2.66 4 3.32 4 4 C5.175625 4.4640625 5.175625 4.4640625 6.375 4.9375 C9 6 9 6 11 7 C11 7.66 11 8.32 11 9 C11.66 9 12.32 9 13 9 C13 9.66 13 10.32 13 11 C13.66 11 14.32 11 15 11 C15 11.66 15 12.32 15 13 C15.66 13 16.32 13 17 13 C17 13.66 17 14.32 17 15 C17.66 15 18.32 15 19 15 C19 15.66 19 16.32 19 17 C19.66 17 20.32 17 21 17 C22.44963959 18.90374355 23.81184323 20.87467159 25.125 22.875 C26.21167969 24.51082031 26.21167969 24.51082031 27.3203125 26.1796875 C29 29 29 29 29 31 C29.64066406 30.81308594 30.28132812 30.62617188 30.94140625 30.43359375 C47.71180154 28.05618139 64.44344582 36.78131998 77.6484375 46.046875 C78.42445313 46.69140625 79.20046875 47.3359375 80 48 C80 48.66 80 49.32 80 50 C80.5775 50.2475 81.155 50.495 81.75 50.75 C84.32939979 52.18299988 86.06121592 53.78424676 88 56 C88 56.66 88 57.32 88 58 C88.66 58 89.32 58 90 58 C95.87644325 64.70944423 99.74793282 72.77142655 103 81 C103.62455078 82.57394531 103.62455078 82.57394531 104.26171875 84.1796875 C107.11155403 92.83918699 107.38198698 101.18779454 107.4375 110.25 C107.44765137 111.43408447 107.45780273 112.61816895 107.46826172 113.83813477 C107.30375638 130.39872529 101.2278019 144.44884507 92 158 C91.34 158.99 90.68 159.98 90 161 C89.34 161 88.68 161 88 161 C87.7525 161.5775 87.505 162.155 87.25 162.75 C85.81700012 165.32939979 84.21575324 167.06121592 82 169 C81.34 169 80.68 169 80 169 C80 169.66 80 170.32 80 171 C77.86793098 172.71883092 75.73938818 174.30742827 73.5 175.875 C72.89929688 176.30941406 72.29859375 176.74382812 71.6796875 177.19140625 C68.50595736 179.44002782 65.34977678 181.35408568 61.86291504 183.08377075 C61.14020668 183.44292635 60.41749832 183.80208195 59.67288971 184.17212105 C58.8448093 184.58192113 58.8448093 184.58192113 58 185 C57.98969254 186.2815094 57.97938507 187.5630188 57.96876526 188.88336182 C57.87108795 200.94940315 57.76835918 213.01539225 57.66066074 225.08134842 C57.60545251 231.28484568 57.55203577 237.48834768 57.50268555 243.69189453 C57.45501117 249.67655319 57.40266708 255.66115431 57.34705925 261.64574432 C57.32664967 263.93111492 57.30793427 266.21650128 57.29092598 268.50189972 C57.26685122 271.69826465 57.2368006 274.89452093 57.20532227 278.09082031 C57.1995668 279.03956528 57.19381134 279.98831024 57.18788147 280.96580505 C57.17319824 282.27403984 57.17319824 282.27403984 57.15821838 283.60870361 C57.15176583 284.36457386 57.14531328 285.12044411 57.1386652 285.89921951 C56.99738408 288.03963119 56.58503488 289.94025703 56 292 C55.34 292 54.68 292 54 292 C53.731875 292.61875 53.46375 293.2375 53.1875 293.875 C52 296 52 296 49 298 C46.49002894 298.19730237 44.09074379 298.27830327 41.58036804 298.26742554 C40.43743679 298.27422221 40.43743679 298.27422221 39.27141601 298.28115618 C36.7104239 298.29384729 34.14964318 298.29217679 31.58862305 298.29052734 C29.75557175 298.29650971 27.92252298 298.30331458 26.08947754 298.31088257 C21.10386071 298.32858079 16.1183125 298.33323959 11.1326673 298.33451414 C6.97263543 298.33641139 2.81261961 298.34376703 -1.34740609 298.35085833 C-11.16219498 298.36715488 -20.97694718 298.37202618 -30.79174805 298.37060547 C-40.91931609 298.36940411 -51.04667099 298.39050184 -61.1741851 298.4220928 C-69.86557275 298.44823885 -78.55689073 298.45897345 -87.24831742 298.45769465 C-92.44084704 298.45718447 -97.63318738 298.46289853 -102.82567787 298.48405075 C-107.71029241 298.50340463 -112.59453658 298.5035771 -117.47916412 298.48901749 C-119.2714282 298.48692465 -121.06371528 298.49165848 -122.85593987 298.5037384 C-125.30420159 298.51917045 -127.75118305 298.50989711 -130.19941711 298.49447632 C-130.90750104 298.50476344 -131.61558496 298.51505057 -132.34512597 298.52564943 C-137.3312505 298.45632071 -140.1748449 297.14900408 -144 294 C-147.35582915 288.35350967 -147.44225557 283.20935437 -147.43237305 276.75024414 C-147.4425647 275.74460419 -147.45275635 274.73896423 -147.46325684 273.70285034 C-147.49331972 270.39689514 -147.50264272 267.09123003 -147.51171875 263.78515625 C-147.52857036 261.4858657 -147.54672126 259.18658434 -147.56611633 256.88731384 C-147.61356977 250.84905874 -147.64340944 244.81084089 -147.66955566 238.77246094 C-147.69938453 232.60539393 -147.74590693 226.4384552 -147.79101562 220.27148438 C-147.87699589 208.18105675 -147.9443648 196.09060268 -148 184 C-148.82931534 183.59193619 -149.65863068 183.18387238 -150.51307678 182.76344299 C-152.14061134 181.95736855 -152.14061134 181.95736855 -153.80102539 181.13500977 C-154.87784073 180.60319595 -155.95465607 180.07138214 -157.06410217 179.52345276 C-160.14249898 177.92605653 -162.78744063 176.17420522 -165.4375 173.9375 C-166.24832031 173.25429688 -167.05914062 172.57109375 -167.89453125 171.8671875 C-170.38116354 169.66197371 -172.73941874 167.4390482 -175 165 C-175.66128906 164.3090625 -176.32257813 163.618125 -177.00390625 162.90625 C-183.86268455 155.54441283 -183.86268455 155.54441283 -185 150 C-185.66 150 -186.32 150 -187 150 C-187 148.68 -187 147.36 -187 146 C-187.66 146 -188.32 146 -189 146 C-192.5372573 138.20726057 -194.39301945 130.38291128 -196 122 C-196.28230469 120.77410156 -196.28230469 120.77410156 -196.5703125 119.5234375 C-200.01375029 99.30106648 -193.36241725 78.60305948 -182 62 C-177.70847982 56.47076772 -172.8896092 50.84549321 -167 47 C-166.34 47 -165.68 47 -165 47 C-165 46.34 -165 45.68 -165 45 C-155.8272621 36.94352121 -141.18881267 30.53315822 -128.84765625 31.16015625 C-125.19763269 31.25811488 -122.48078896 31.14159539 -119 30 C-116.02624466 26.84262422 -113.88265488 23.50231912 -111.58203125 19.84765625 C-100.62077138 2.71079776 -80.43851014 -6.87521609 -61.171875 -11.140625 C-39.02840579 -15.30935625 -19.33001399 -10.59367315 0 0 Z M-82 28 C-82.95519531 28.67482422 -82.95519531 28.67482422 -83.9296875 29.36328125 C-91.90455986 35.59250183 -97.45855914 44.89601231 -102.80859375 53.35546875 C-104 55 -104 55 -106 56 C-107.60927844 56.17376503 -109.2241287 56.29739082 -110.83984375 56.39453125 C-124.36454553 57.31240649 -135.3274696 58.7370922 -147 66 C-147 66.66 -147 67.32 -147 68 C-147.804375 68.268125 -148.60875 68.53625 -149.4375 68.8125 C-150.7059375 69.4003125 -150.7059375 69.4003125 -152 70 C-152.33 70.99 -152.66 71.98 -153 73 C-153.6084375 73.28875 -154.216875 73.5775 -154.84375 73.875 C-161.22954559 77.20671944 -164.89867226 87.16860781 -167.2890625 93.67578125 C-168.33981517 97.11093421 -168.85360958 100.4293467 -169 104 C-169.03996094 104.93972656 -169.07992187 105.87945312 -169.12109375 106.84765625 C-169.44536296 121.93571196 -164.69370649 135.30775337 -155 147 C-145.88910297 155.21695149 -137.05025318 160.12332123 -125 162 C-125 162.66 -125 163.32 -125 164 C-122.525 166.475 -122.525 166.475 -120 169 C-119.67 181.54 -119.34 194.08 -119 207 C-70.16 207 -21.32 207 29 207 C29.33 195.12 29.66 183.24 30 171 C30.33 169.35 30.66 167.7 31 166 C31.66 166 32.32 166 33 166 C33 165.34 33 164.68 33 164 C33.52207031 163.82984375 34.04414063 163.6596875 34.58203125 163.484375 C36.15739012 162.96569292 37.73007638 162.4388595 39.30078125 161.90625 C41.10346834 161.30100629 42.91365566 160.71766864 44.73046875 160.15625 C51.60084818 157.90811456 56.61976069 154.80764356 62 150 C62.53882813 149.51917969 63.07765625 149.03835937 63.6328125 148.54296875 C65.91072131 146.38871785 66.9920866 145.0237402 68 142 C68.66 142 69.32 142 70 142 C79.4038354 129.85561829 81.57608773 115.89748259 80 101 C78.89865505 94.71493458 77.01389032 88.63407425 74 83 C73.34 83 72.68 83 72 83 C71.34 81.02 70.68 79.04 70 77 C69.34 77 68.68 77 68 77 C67.731875 76.401875 67.46375 75.80375 67.1875 75.1875 C66.00082594 73.00152146 64.90400887 71.58667406 63 70 C62.34 70 61.68 70 61 70 C61 69.34 61 68.68 61 68 C52.20211449 60.22409109 40.28139865 57.13399384 28.7734375 56.859375 C28.0515625 56.84003906 27.3296875 56.82070312 26.5859375 56.80078125 C25.10444526 56.76675404 23.62250569 56.74868445 22.140625 56.74609375 C18.20111697 56.6119528 16.45060756 56.34608191 13.23828125 53.87890625 C10.83047369 50.78195307 8.75623907 47.58620164 6.8125 44.1875 C5.59801321 42.06729425 4.35287506 40.03976527 3 38 C2.34 38 1.68 38 1 38 C0.5978125 37.1028125 0.5978125 37.1028125 0.1875 36.1875 C-0.99917406 34.00152146 -2.09599113 32.58667406 -4 31 C-4.66 31 -5.32 31 -6 31 C-6 30.34 -6 29.68 -6 29 C-28.8156589 10.60412843 -58.50016391 11.3143797 -82 28 Z M-119 235 C-119 246.55 -119 258.1 -119 270 C-70.16 270 -21.32 270 29 270 C29 258.45 29 246.9 29 235 C-19.84 235 -68.68 235 -119 235 Z " fill="#8A2DDF" transform="translate(295,106)"/>
<path d="M0 0 C3.16115776 1.36983503 3.9927092 1.9890638 6 5 C6 17.54 6 30.08 6 43 C54.84 43 103.68 43 154 43 C154 43.33 154 43.66 154 44 C115.16577738 44.5831626 76.33277211 45.10546515 37.49356842 45.12338257 C35.18375733 45.12500263 32.87395603 45.12856065 30.56414795 45.13256836 C26.95307773 45.13835644 23.34204992 45.13869817 19.73097801 45.13431931 C17.78112663 45.13285066 15.8312735 45.13577892 13.88142395 45.13882446 C12.73228012 45.13571259 11.58313629 45.13260071 10.39916992 45.12939453 C9.39834885 45.12859894 8.39752777 45.12780334 7.36637878 45.12698364 C5 45 5 45 3 44 C2.96241577 42.28901123 2.96241577 42.28901123 2.92407227 40.54345703 C2.83005707 36.32035659 2.72982213 32.09742291 2.62768555 27.87451172 C2.58431435 26.04512425 2.54264089 24.21569573 2.50268555 22.38623047 C2.44503582 19.75996514 2.38132635 17.1339069 2.31640625 14.5078125 C2.29969376 13.68693146 2.28298126 12.86605042 2.26576233 12.02029419 C2.2568613 7.8766304 2.2568613 7.8766304 1 4 C0.34 3.67 -0.32 3.34 -1 3 C-0.67 2.01 -0.34 1.02 0 0 Z " fill="#8D4EC7" transform="translate(170,270)"/>
<path d="M0 0 C3.18370629 1.59185315 3.76325069 4.83465647 5 8 C5.26039063 8.63550781 5.52078125 9.27101562 5.7890625 9.92578125 C9.6205237 19.5818375 10.34008955 28.5123633 10.3125 38.875 C10.32861328 40.07769531 10.34472656 41.28039062 10.36132812 42.51953125 C10.36685006 52.69093708 8.37644828 61.26536741 4.4375 70.625 C4.02371094 71.62789063 3.60992187 72.63078125 3.18359375 73.6640625 C2 76 2 76 0 77 C0.76863958 71.00461128 2.70517005 65.4895173 4.79956055 59.84521484 C7.31001824 52.52350809 7.48234805 45.56440269 7.4375 37.875 C7.45748047 36.65167969 7.47746094 35.42835938 7.49804688 34.16796875 C7.49412259 26.9080388 6.79587574 22.2040909 3 16 C2.2599631 13.34820112 1.99216883 11.30541547 2.0625 8.5625 C1.98600729 5.42629881 1.0883145 2.92484521 0 0 Z " fill="#9556D4" transform="translate(392,177)"/>
<path d="M0 0 C2.42624323 3.63936485 2.30529985 6.35631564 2.25 10.5625 C2.24468262 11.27978271 2.23936523 11.99706543 2.23388672 12.73608398 C2.13431707 18.33782212 1.46238545 23.58116077 0 29 C-0.16757812 29.66644531 -0.33515625 30.33289063 -0.5078125 31.01953125 C-1.97594476 36.55415684 -3.65067485 40.19434049 -8 44 C-8.66 44 -9.32 44 -10 44 C-10 44.66 -10 45.32 -10 46 C-10.99 45.67 -11.98 45.34 -13 45 C-12.67 44.34 -12.34 43.68 -12 43 C-11.34 43 -10.68 43 -10 43 C-9.7215625 42.27554688 -9.443125 41.55109375 -9.15625 40.8046875 C-7.71806602 37.3161196 -5.977663 34.03081215 -4.21875 30.6953125 C-1.13120008 23.8670771 -0.61695603 17.43711814 -0.375 10.0625 C-0.33632813 9.09248047 -0.29765625 8.12246094 -0.2578125 7.12304688 C-0.16424924 4.74887924 -0.07850792 2.37470508 0 0 Z " fill="#9254CF" transform="translate(375,205)"/>
<path d="M0 0 C0.99 0.66 1.98 1.32 3 2 C3 2.99 3 3.98 3 5 C24.45 5 45.9 5 68 5 C68.495 5.99 68.495 5.99 69 7 C60.48111013 7.11594941 51.96255097 7.20474236 43.4430666 7.25906086 C39.48690697 7.28513382 35.53128795 7.32048809 31.57543945 7.37719727 C27.75637198 7.43160179 23.9378238 7.46143786 20.11839867 7.47438622 C18.66270969 7.48361119 17.20704854 7.50162618 15.75158119 7.52865028 C13.70917421 7.56505743 11.66890097 7.56994116 9.6262207 7.56762695 C7.88415092 7.58428154 7.88415092 7.58428154 6.10688782 7.60127258 C2.0955857 6.8249697 0.59338348 5.06417994 -2 2 C-1.34 1.34 -0.68 0.68 0 0 Z " fill="#852CD4" transform="translate(152,396)"/>
<path d="M0 0 C4.08414438 0.08087857 8.16679586 0.19372403 12.25 0.3125 C13.40886719 0.33505859 14.56773437 0.35761719 15.76171875 0.38085938 C17.43427734 0.4340332 17.43427734 0.4340332 19.140625 0.48828125 C20.16704102 0.51446533 21.19345703 0.54064941 22.25097656 0.56762695 C25.31153427 1.04899886 26.72114809 1.95237052 29 4 C28.67 4.99 28.34 5.98 28 7 C27.20078125 6.80664062 26.4015625 6.61328125 25.578125 6.4140625 C18.8953702 4.8296535 12.26314557 3.4847591 5.4609375 2.52734375 C3 2 3 2 0 0 Z " fill="#965AD0" transform="translate(246,119)"/>
<path d="M0 0 C2.9296875 0.390625 2.9296875 0.390625 5.859375 0.78125 C8.30458395 1.06777357 8.30458395 1.06777357 12 1 C12.061875 1.886875 12.12375 2.77375 12.1875 3.6875 C13.18469621 7.75299225 15.01484729 9.16793205 18 12 C18 12.99 18 13.98 18 15 C17.34 15 16.68 15 16 15 C14.31267723 13.01739574 12.64633943 11.0167658 11 9 C10.34 8.67 9.68 8.34 9 8 C9 7.34 9 6.68 9 6 C8.2575 5.7525 7.515 5.505 6.75 5.25 C3.79875938 3.90852699 2.15185026 2.39094474 0 0 Z " fill="#954AD5" transform="translate(347,168)"/>
<path d="M0 0 C7.59 0.33 15.18 0.66 23 1 C23 1.33 23 1.66 23 2 C22.01773438 2.06731323 22.01773438 2.06731323 21.015625 2.13598633 C18.00939094 2.34908714 15.00484436 2.58065599 12 2.8125 C10.97003906 2.88275391 9.94007813 2.95300781 8.87890625 3.02539062 C2.6748933 3.5193407 -2.26112785 4.61967235 -8 7 C-8.99 7 -9.98 7 -11 7 C-11 6.34 -11 5.68 -11 5 C-7.14243493 2.84694043 -4.44870215 1.60746746 0 2 C0 1.34 0 0.68 0 0 Z " fill="#8E52CC" transform="translate(166,161)"/>
<path d="M0 0 C0.66 0.33 1.32 0.66 2 1 C2.125 3.375 2.125 3.375 2 6 C1.34 6.66 0.68 7.32 0 8 C-0.24543141 10.64787789 -0.37349386 13.19903823 -0.4140625 15.8515625 C-0.43342865 16.62559418 -0.4527948 17.39962585 -0.4727478 18.19711304 C-0.5325983 20.67296275 -0.57895011 23.14885883 -0.625 25.625 C-0.66317482 27.30210377 -0.70222625 28.97918784 -0.7421875 30.65625 C-0.83830409 34.77067353 -0.92231439 38.88518886 -1 43 C-1.33 43 -1.66 43 -2 43 C-2.16762152 37.64333324 -2.32818051 32.28651915 -2.48217773 26.92944336 C-2.53557027 25.10679417 -2.5908975 23.28420059 -2.64819336 21.46166992 C-2.73018093 18.84305818 -2.80522482 16.22432573 -2.87890625 13.60546875 C-2.90594131 12.78974899 -2.93297638 11.97402924 -2.96083069 11.1335907 C-3.04887557 7.80145255 -3.06287474 5.18862422 -2 2 C-1.34 2 -0.68 2 0 2 C0 1.34 0 0.68 0 0 Z " fill="#842FD3" transform="translate(328,270)"/>
<path d="M0 0 C-1.44077046 3.36179774 -3.24750021 5.59156268 -6 8 C-6.66 8 -7.32 8 -8 8 C-8 8.66 -8 9.32 -8 10 C-9.96147874 11.38938077 -11.96166576 12.7260411 -14 14 C-14 12.68 -14 11.36 -14 10 C-13.01 10 -12.02 10 -11 10 C-11 9.01 -11 8.02 -11 7 C-10.34 7 -9.68 7 -9 7 C-8.9175 6.21625 -8.835 5.4325 -8.75 4.625 C-8 2 -8 2 -6.1875 0.6875 C-4 0 -4 0 0 0 Z " fill="#944DD7" transform="translate(383,267)"/>
<path d="M0 0 C2.64 0.66 5.28 1.32 8 2 C4.236192 4.50920533 0.41333655 6.92057143 -3.40625 9.34375 C-5.28369131 10.54259807 -7.14655823 11.76437215 -9 13 C-9 12.01 -9 11.02 -9 10 C-9.33 9.67 -9.66 9.34 -10 9 C-9.67 8.01 -9.34 7.02 -9 6 C-7.35 6.33 -5.7 6.66 -4 7 C-4 6.34 -4 5.68 -4 5 C-3.01 5 -2.02 5 -1 5 C-0.67 3.35 -0.34 1.7 0 0 Z " fill="#9957D9" transform="translate(219,124)"/>
<path d="M0 0 C3.9998593 -0.08783475 7.99946704 -0.14067102 12 -0.1875 C13.12535156 -0.21263672 14.25070312 -0.23777344 15.41015625 -0.26367188 C22.99255011 -0.3301841 28.20709595 0.60354798 35 4 C35 4.66 35 5.32 35 6 C33.93072266 5.69255859 33.93072266 5.69255859 32.83984375 5.37890625 C31.88207031 5.10949219 30.92429687 4.84007812 29.9375 4.5625 C28.52791016 4.16224609 28.52791016 4.16224609 27.08984375 3.75390625 C20.80082955 2.21941859 14.50168852 1.77408141 8.0625 1.4375 C7.28326172 1.39431641 6.50402344 1.35113281 5.70117188 1.30664062 C3.80092883 1.20171923 1.90048331 1.1004755 0 1 C0 0.67 0 0.34 0 0 Z " fill="#9259CD" transform="translate(311,162)"/>
<path d="M0 0 C0.99 0.14405273 0.99 0.14405273 2 0.29101562 C5.56409006 0.81994931 9.09935658 1.44561751 12.625 2.1875 C12.625 2.5175 12.625 2.8475 12.625 3.1875 C5.035 3.1875 -2.555 3.1875 -10.375 3.1875 C-10.375 2.5275 -10.375 1.8675 -10.375 1.1875 C-6.58906134 -1.33645911 -4.24750307 -0.68468437 0 0 Z " fill="#8F52CD" transform="translate(335.375,136.8125)"/>
<path d="M0 0 C-0.33 2.31 -0.66 4.62 -1 7 C-2.65 7 -4.3 7 -6 7 C-5.67 8.98 -5.34 10.96 -5 13 C-5.66 13 -6.32 13 -7 13 C-7 11.35 -7 9.7 -7 8 C-7.66 7.67 -8.32 7.34 -9 7 C-7.69013727 5.83037314 -6.3770374 4.66437056 -5.0625 3.5 C-3.96615234 2.52546875 -3.96615234 2.52546875 -2.84765625 1.53125 C-1 0 -1 0 0 0 Z " fill="#974DDC" transform="translate(129,153)"/>
<path d="M0 0 C0.99 1.32 1.98 2.64 3 4 C2.401875 4.226875 1.80375 4.45375 1.1875 4.6875 C-1.22690693 5.85351779 -1.22690693 5.85351779 -2.15625 8.5625 C-2.7646875 9.366875 -3.373125 10.17125 -4 11 C-6.78599571 11.38060051 -8.93372751 11.47962905 -11.6875 11.3125 C-12.38939453 11.28994141 -13.09128906 11.26738281 -13.81445312 11.24414062 C-15.5438833 11.18531647 -17.27221438 11.09563389 -19 11 C-19 10.67 -19 10.34 -19 10 C-17.69675781 10.04833984 -17.69675781 10.04833984 -16.3671875 10.09765625 C-9.4933929 10.22309704 -9.4933929 10.22309704 -3.80078125 6.9296875 C-2.33826841 4.67040616 -1.08823145 2.45970123 0 0 Z " fill="#955BD1" transform="translate(182,127)"/>
<path d="M0 0 C0.66 0.33 1.32 0.66 2 1 C2 2.65 2 4.3 2 6 C2.99 6.33 3.98 6.66 5 7 C5 7.66 5 8.32 5 9 C5.66 9 6.32 9 7 9 C7 10.32 7 11.64 7 13 C7.99 13.33 8.98 13.66 10 14 C10.33 15.65 10.66 17.3 11 19 C7.72257902 15.89973691 5.06895163 13.02901106 3 9 C3 8.34 3 7.68 3 7 C2.34 7 1.68 7 1 7 C1 5.68 1 4.36 1 3 C0.34 3 -0.32 3 -1 3 C-0.67 2.01 -0.34 1.02 0 0 Z " fill="#A16CD7" transform="translate(107,249)"/>
<path d="M0 0 C0.99 0.66 1.98 1.32 3 2 C3 2.99 3 3.98 3 5 C3.61488281 4.97679687 4.22976562 4.95359375 4.86328125 4.9296875 C5.67152344 4.91164063 6.47976562 4.89359375 7.3125 4.875 C8.11300781 4.85179687 8.91351563 4.82859375 9.73828125 4.8046875 C12 5 12 5 15 7 C4.31569507 7.76681614 4.31569507 7.76681614 1.08984375 5.88671875 C-0.25 4.5 -0.25 4.5 -2 2 C-1.34 1.34 -0.68 0.68 0 0 Z " fill="#8535CF" transform="translate(152,396)"/>
<path d="M0 0 C1.9375 0.6875 1.9375 0.6875 4 2 C4.75 4.625 4.75 4.625 5 7 C4.34 7 3.68 7 3 7 C2.34 7.66 1.68 8.32 1 9 C0.67 7.68 0.34 6.36 0 5 C-0.66 5 -1.32 5 -2 5 C-2.33 3.68 -2.66 2.36 -3 1 C-2.01 1.33 -1.02 1.66 0 2 C0 1.34 0 0.68 0 0 Z " fill="#974EE1" transform="translate(369,184)"/>
<path d="M0 0 C2.31 0.66 4.62 1.32 7 2 C7 1.34 7 0.68 7 0 C7.66 0 8.32 0 9 0 C9.12375 0.969375 9.2475 1.93875 9.375 2.9375 C9.58125 3.948125 9.7875 4.95875 10 6 C10.66 6.33 11.32 6.66 12 7 C11.67 7.99 11.34 8.98 11 10 C9.2925002 8.71937515 7.62626404 7.38232443 6 6 C6 5.34 6 4.68 6 4 C5.195625 3.71125 4.39125 3.4225 3.5625 3.125 C1 2 1 2 0 0 Z " fill="#9B5ED6" transform="translate(283,131)"/>
<path d="M0 0 C-1.24976756 3.65316671 -1.67098753 4.78065836 -5 7 C-5.33 7.99 -5.66 8.98 -6 10 C-7.65 10.33 -9.3 10.66 -11 11 C-4.09302326 0 -4.09302326 0 0 0 Z " fill="#9E63D4" transform="translate(194,116)"/>
<path d="M0 0 C0.66 0 1.32 0 2 0 C2 0.99 2 1.98 2 3 C2.721875 2.67 3.44375 2.34 4.1875 2 C7.01697427 0.99396471 9.02895466 0.83022598 12 1 C12 1.66 12 2.32 12 3 C10.42074025 3.39180108 8.83631206 3.76280736 7.25 4.125 C6.36828125 4.33382812 5.4865625 4.54265625 4.578125 4.7578125 C1.67124507 5.03088304 0.43338652 4.53508028 -2 3 C-1.34 2.67 -0.68 2.34 0 2 C0 1.34 0 0.68 0 0 Z " fill="#9852D8" transform="translate(227,120)"/>
<path d="M0 0 C1.9375 0.75 1.9375 0.75 4 2 C5.19614053 5.18970807 4.95841601 7.90670923 4.5625 11.25 C4.46066406 12.14203125 4.35882813 13.0340625 4.25390625 13.953125 C4.17011719 14.62859375 4.08632812 15.3040625 4 16 C3.67 16 3.34 16 3 16 C2.93941406 15.30132812 2.87882813 14.60265625 2.81640625 13.8828125 C2.73261719 12.97273438 2.64882812 12.06265625 2.5625 11.125 C2.44068359 9.76761719 2.44068359 9.76761719 2.31640625 8.3828125 C2.13010715 5.98889139 2.13010715 5.98889139 1 4 C0.34 3.67 -0.32 3.34 -1 3 C-0.67 2.01 -0.34 1.02 0 0 Z " fill="#8C45D1" transform="translate(170,270)"/>
<path d="M0 0 C4.38889325 0.66498383 7.9811485 2.18757677 12 4 C12 4.33 12 4.66 12 5 C9.69 5.33 7.38 5.66 5 6 C5 5.34 5 4.68 5 4 C3.68 4 2.36 4 1 4 C0.67 2.68 0.34 1.36 0 0 Z " fill="#934DD3" transform="translate(276,98)"/>
<path d="M0 0 C4.63891425 0.27287731 6.7350467 2.29357326 9.86328125 5.4296875 C11 7 11 7 11 10 C10.34 10 9.68 10 9 10 C7.31267723 8.01739574 5.64633943 6.0167658 4 4 C3.34 3.67 2.68 3.34 2 3 C2 2.34 2 1.68 2 1 C1.34 0.67 0.68 0.34 0 0 Z " fill="#A26AD5" transform="translate(354,173)"/>
<path d="M0 0 C-0.33 0.99 -0.66 1.98 -1 3 C-0.01 3.66 0.98 4.32 2 5 C1 6 1 6 -2.5625 6.0625 C-3.696875 6.041875 -4.83125 6.02125 -6 6 C-6 5.01 -6 4.02 -6 3 C-2.66666667 0 -2.66666667 0 0 0 Z " fill="#852FD4" transform="translate(227,120)"/>
<path d="M0 0 C0 0.66 0 1.32 0 2 C-0.99 2 -1.98 2 -3 2 C-3.66 3.32 -4.32 4.64 -5 6 C-5.99 6 -6.98 6 -8 6 C-9.33981486 6.3062434 -10.67511887 6.63451555 -12 7 C-8.5063473 3.20689136 -5.42241937 0 0 0 Z " fill="#9854DA" transform="translate(208,107)"/>
<path d="M0 0 C7.42857143 3.14285714 7.42857143 3.14285714 11 5 C11 5.66 11 6.32 11 7 C11.66 7.33 12.32 7.66 13 8 C11.68 8 10.36 8 9 8 C9 7.34 9 6.68 9 6 C7.6078125 5.8453125 7.6078125 5.8453125 6.1875 5.6875 C2.97535795 4.99468505 1.88069983 4.6120831 0 2 C0 1.34 0 0.68 0 0 Z " fill="#9052CF" transform="translate(288,103)"/>
<path d="M0 0 C-1.98 2.31 -3.96 4.62 -6 7 C-6.66 6.67 -7.32 6.34 -8 6 C-8 5.01 -8 4.02 -8 3 C-7.34 3 -6.68 3 -6 3 C-6 2.01 -6 1.02 -6 0 C-3 -1 -3 -1 0 0 Z " fill="#9B5CD7" transform="translate(205,143)"/>
<path d="M0 0 C0.66 0.33 1.32 0.66 2 1 C2.41176754 4.60296594 2.1535853 5.78402067 0 8.8125 C-0.66 9.534375 -1.32 10.25625 -2 11 C-3.125 5.375 -3.125 5.375 -2 2 C-1.34 2 -0.68 2 0 2 C0 1.34 0 0.68 0 0 Z " fill="#9856D8" transform="translate(328,270)"/>
<path d="M0 0 C-0.625 1.9375 -0.625 1.9375 -2 4 C-5.21097032 4.97725184 -7.09369025 5.4096133 -10.1953125 4.0078125 C-10.79085938 3.67523438 -11.38640625 3.34265625 -12 3 C-10.56445975 2.49440092 -9.1264798 1.9957251 -7.6875 1.5 C-6.88699219 1.2215625 -6.08648437 0.943125 -5.26171875 0.65625 C-3 0 -3 0 0 0 Z " fill="#944CD5" transform="translate(349,263)"/>
<path d="M0 0 C2 3 2 3 1.625 5.1875 C1.41875 5.785625 1.2125 6.38375 1 7 C1.66 7 2.32 7 3 7 C4.625 9 4.625 9 6 11 C4.02 11.99 4.02 11.99 2 13 C1.46845258 11.39935157 0.95011647 9.79431126 0.4375 8.1875 C0.14746094 7.29417969 -0.14257812 6.40085938 -0.44140625 5.48046875 C-1 3 -1 3 0 0 Z " fill="#9F5ED9" transform="translate(102,234)"/>
<path d="M0 0 C1.65 0 3.3 0 5 0 C4.01 0.495 4.01 0.495 3 1 C3 1.66 3 2.32 3 3 C1.35666496 4.03789581 -0.31243867 5.03567924 -2 6 C-2.66 6.66 -3.32 7.32 -4 8 C-3.67 6.35 -3.34 4.7 -3 3 C-2.01 2.67 -1.02 2.34 0 2 C0 1.34 0 0.68 0 0 Z " fill="#A56DD9" transform="translate(145,171)"/>
<path d="M0 0 C-3.67259383 2.44839588 -6.54648201 4 -11 4 C-11 3.34 -11 2.68 -11 2 C-6.89657963 -0.38570952 -4.61380251 -1.49270081 0 0 Z " fill="#9D62D4" transform="translate(166,164)"/>
<path d="M0 0 C1.65 0.33 3.3 0.66 5 1 C5 1.99 5 2.98 5 4 C2.5 5.6875 2.5 5.6875 0 7 C0 6.01 0 5.02 0 4 C-0.33 3.67 -0.66 3.34 -1 3 C-0.67 2.01 -0.34 1.02 0 0 Z " fill="#9447D7" transform="translate(210,130)"/>
<path d="M0 0 C0.33 0.66 0.66 1.32 1 2 C1.99 2.33 2.98 2.66 4 3 C3.34 3 2.68 3 2 3 C2 3.66 2 4.32 2 5 C3.32 5.33 4.64 5.66 6 6 C4.02 6.99 2.04 7.98 0 9 C0.33 7.35 0.66 5.7 1 4 C0.34 4 -0.32 4 -1 4 C-0.67 2.68 -0.34 1.36 0 0 Z " fill="#8E3ADB" transform="translate(323,135)"/>
<path d="M0 0 C-0.33 0.99 -0.66 1.98 -1 3 C-1.66 3 -2.32 3 -3 3 C-3.33 3.66 -3.66 4.32 -4 5 C-5.32 4.34 -6.64 3.68 -8 3 C-8 2.34 -8 1.68 -8 1 C-5.07175348 0.02391783 -3.04386724 -0.08226668 0 0 Z " fill="#9C54DD" transform="translate(209,137)"/>
<path d="M0 0 C0.66 1.32 1.32 2.64 2 4 C-0.375 5.5625 -0.375 5.5625 -3 7 C-3.66 6.67 -4.32 6.34 -5 6 C-3.35 4.02 -1.7 2.04 0 0 Z " fill="#9C63D8" transform="translate(119,161)"/>
<path d="M0 0 C2.32472205 2.85306797 3.7508258 5.54074837 5 9 C3.68 9 2.36 9 1 9 C0.67 6.03 0.34 3.06 0 0 Z " fill="#A770DB" transform="translate(130,237)"/>
<path d="M0 0 C0.33 0 0.66 0 1 0 C1.05399736 1.45792884 1.09279177 2.91642712 1.125 4.375 C1.14820312 5.18710938 1.17140625 5.99921875 1.1953125 6.8359375 C1 9 1 9 -1 11 C-2.26264601 6.70700357 -1.62950412 4.12168689 0 0 Z " fill="#9A5AD9" transform="translate(104,184)"/>
<path d="M0 0 C0.6875 1.6875 0.6875 1.6875 1 4 C-0.25 6.6875 -0.25 6.6875 -2 9 C-2.99 9.33 -3.98 9.66 -5 10 C-3.66511872 6.40608886 -2.03977277 3.24509304 0 0 Z " fill="#A46DDA" transform="translate(113,168)"/>
<path d="M0 0 C0.66 0.33 1.32 0.66 2 1 C1.55090939 2.48199902 1.09043436 3.96055236 0.625 5.4375 C0.36976563 6.26121094 0.11453125 7.08492187 -0.1484375 7.93359375 C-1 10 -1 10 -3 11 C-2.44894091 7.0507432 -1.61064629 3.65079826 0 0 Z " fill="#9A60D6" transform="translate(395,243)"/>
<path d="M0 0 C1.258125 -0.04125 2.51625 -0.0825 3.8125 -0.125 C4.52019531 -0.14820313 5.22789062 -0.17140625 5.95703125 -0.1953125 C8 0 8 0 11 2 C11 2.66 11 3.32 11 4 C7.37 3.01 3.74 2.02 0 1 C0 0.67 0 0.34 0 0 Z " fill="#A978DA" transform="translate(335,164)"/>
<path d="M0 0 C0.99 0.33 1.98 0.66 3 1 C3 1.66 3 2.32 3 3 C3.66 3 4.32 3 5 3 C5 3.66 5 4.32 5 5 C3.35 4.67 1.7 4.34 0 4 C0 2.68 0 1.36 0 0 Z " fill="#934ED6" transform="translate(380,161)"/>
<path d="M0 0 C0.598125 0.350625 1.19625 0.70125 1.8125 1.0625 C1.8125 1.7225 1.8125 2.3825 1.8125 3.0625 C-1.81076739 4.2702558 -2.82896369 3.60561128 -6.1875 2.0625 C-4.66896708 -0.97456585 -3.05066334 -1.30742714 0 0 Z " fill="#8B44D5" transform="translate(366.1875,147.9375)"/>
<path d="M0 0 C0 0.66 0 1.32 0 2 C-3.96 2 -7.92 2 -12 2 C-8.38983318 -0.40677788 -4.12558991 -2.06279495 0 0 Z " fill="#9848DE" transform="translate(273,121)"/>
<path d="M0 0 C0.99 0.66 1.98 1.32 3 2 C3 3.32 3 4.64 3 6 C1.0625 5.1875 1.0625 5.1875 -1 4 C-1.33 3.01 -1.66 2.02 -2 1 C-1.34 0.67 -0.68 0.34 0 0 Z " fill="#9152D5" transform="translate(152,396)"/>
<path d="M0 0 C-0.66 1.32 -1.32 2.64 -2 4 C-4.475 3.01 -4.475 3.01 -7 2 C-5.26578631 -1.46842738 -3.40984787 -1.13661596 0 0 Z " fill="#9449DD" transform="translate(144,283)"/>
<path d="M0 0 C1.32 0 2.64 0 4 0 C2.63016497 3.16115776 2.0109362 3.9927092 -1 6 C-0.67 4.02 -0.34 2.04 0 0 Z " fill="#8336D2" transform="translate(330,269)"/>
<path d="M0 0 C0.66 0.33 1.32 0.66 2 1 C1.375 2.9375 1.375 2.9375 0 5 C-3.125 5.75 -3.125 5.75 -6 6 C-5 3 -5 3 -2.5625 1.25 C-1.716875 0.8375 -0.87125 0.425 0 0 Z " fill="#7B2FCD" transform="translate(200,111)"/>
<path d="M0 0 C0.99 0.66 1.98 1.32 3 2 C1.02 2.99 1.02 2.99 -1 4 C-1 4.66 -1 5.32 -1 6 C-1.99 5.67 -2.98 5.34 -4 5 C-3.67 4.34 -3.34 3.68 -3 3 C-2.34 3 -1.68 3 -1 3 C-0.67 2.01 -0.34 1.02 0 0 Z " fill="#A56BDA" transform="translate(366,245)"/>
<path d="M0 0 C0.66 0.66 1.32 1.32 2 2 C2.66 2 3.32 2 4 2 C3.67 3.32 3.34 4.64 3 6 C1.68 5.67 0.36 5.34 -1 5 C-0.67 3.35 -0.34 1.7 0 0 Z " fill="#8935D6" transform="translate(366,180)"/>
</svg>
